<svg id="Layer_1" data-name="Layer 1" xmlns="http://www.w3.org/2000/svg" viewBox="0 0 512 512"><defs><style>.cls-1{fill:#fff;}.cls-2{fill:none;}.cls-3{fill:#2196f3;}.cls-4{fill:#e91e63;}.cls-5{fill:#9c27b0;}</style></defs><title>phone_1</title><rect class="cls-1" x="157" y="36" width="200" height="436"/><path class="cls-2" d="M336.84,37.9H318.55c-3.91,0-5.35-.06-5.59,4.89-.24,5.14-3.77,8.27-8.55,9.76a17.48,17.48,0,0,1-5.15.74h-84.4a17.45,17.45,0,0,1-5.15-.7c-4.78-1.5-8.31-4.72-8.55-9.86-.24-4.95-1.68-4.83-5.58-4.83H177.11a20.21,20.21,0,0,0-20.44,20v393.4a20.36,20.36,0,0,0,20.44,20.21H336.84a20,20,0,0,0,20-20.21V57.93A19.81,19.81,0,0,0,336.84,37.9Z"/><path d="M369,59.09a33.31,33.31,0,0,0-33.34-33.38H176.08a33.46,33.46,0,0,0-33.52,33.38V452.81a33.55,33.55,0,0,0,33.52,33.48H335.66A33.4,33.4,0,0,0,369,452.81ZM279.91,38.21a2.81,2.81,0,1,1-2.8,2.8A2.8,2.8,0,0,1,279.91,38.21Zm-35.36,1.61h25a1.63,1.63,0,1,1,0,3.21h-25a1.63,1.63,0,1,1,0-3.21ZM356.81,451.33a20,20,0,0,1-20,20.21H177.11a20.36,20.36,0,0,1-20.44-20.21V57.93a20.21,20.21,0,0,1,20.44-20h18.47c3.9,0,5.34-.13,5.58,4.82.24,5.14,3.77,8.39,8.55,9.88a17.44,17.44,0,0,0,5.15.69h84.4a17.49,17.49,0,0,0,5.15-.75c4.78-1.5,8.31-4.6,8.55-9.74.24-4.95,1.68-4.9,5.59-4.9h18.29a19.81,19.81,0,0,1,20,20Z"/><rect class="cls-3" x="175" y="116" width="164" height="51" rx="13.77"/><rect class="cls-4" x="175" y="210" width="164" height="51" rx="13.77"/><rect class="cls-5" x="175" y="304" width="164" height="51" rx="13.77"/></svg>