<svg id="Layer_1" data-name="Layer 1" xmlns="http://www.w3.org/2000/svg" viewBox="0 0 730 730"><defs><style>.cls-1{fill:#fff;}</style></defs><title>ss_white</title><path class="cls-1" d="M682.86,217.41a126.48,126.48,0,0,1,1.07,16.15V558.44A125.49,125.49,0,0,1,558.44,683.93H233.56A125.49,125.49,0,0,1,108.07,558.44V233.56A125.49,125.49,0,0,1,233.56,108.07H558.44a125.74,125.74,0,0,1,14.86.91l77.07-77.07A125.74,125.74,0,0,0,635.51,31h-479A125.49,125.49,0,0,0,31,156.49v479A125.49,125.49,0,0,0,156.49,761h479A125.49,125.49,0,0,0,761,635.51v-479a126.48,126.48,0,0,0-1.07-16.15Z" transform="translate(-31 -31)"/></svg>